# File created by Blade
# Date/Time:  Wed Apr 08 17:20:14 2015
#---------------------------------------------------------
:version 1.10
:name HOM
:units
  mass 1.0
  length 1.000000
  angle deg
:documentation
     Acclaim Skeleton File
:root
   axis xyz
   order TX TY TZ RX RY RZ
   position 0.000000 0.000000 0.000000
   orientation 0 0 0
:bonedata
   begin
      id 1
      name Spine_dum
      direction 0.000000 1.000000 0.000000
      length 5.893853
      axis 0.0 0.0 0.0 xyz
   end
   begin
      id 2
      name LeftUpLeg_dum
      direction 1.000000 0.000000 0.000000
      length 3.697939
      axis 0.0 0.0 0.0 xyz
   end
   begin
      id 3
      name RightUpLeg_dum
      direction -1.000000 0.000000 0.000000
      length 3.697939
      axis 0.0 0.0 0.0 xyz
   end
   begin
      id 4
      name Spine
      direction 0.000000 1.000000 0.000000
      length 0.000000
      axis 0.0 0.0 0.0 xyz
      dof rx ry rz
   end
   begin
      id 5
      name Spine_dum1
      direction 0.000000 1.000000 0.000000
      length 16.447146
      axis 0.0 0.0 0.0 xyz
   end
   begin
      id 6
      name Spine_dum2
      direction 0.000000 1.000000 0.000000
      length 10.900383
      axis 0.0 0.0 0.0 xyz
   end
   begin
      id 7
      name Spine_dum3
      direction 0.000000 1.000000 0.000000
      length 10.900383
      axis 0.0 0.0 0.0 xyz
   end
   begin
      id 8
      name Head
      direction 0.000000 1.000000 0.000000
      length 4.527550
      axis 0.0 0.0 0.0 xyz
      dof rx ry rz
   end
   begin
      id 9
      name LeftShoulder
      direction 1.000000 0.000000 0.000000
      length 8.219464
      axis 0.0 0.0 -90.0 xyz
      dof rx ry rz
   end
   begin
      id 10
      name LeftArm
      direction 1.000000 0.000000 0.000000
      length 11.094937
      axis 0.0 0.0 -90.0 xyz
      dof rx ry rz
   end
   begin
      id 11
      name LeftForeArm
      direction 1.000000 0.000000 0.000000
      length 9.103875
      axis 0.0 0.0 -90.0 xyz
      dof ry rz rx
   end
   begin
      id 12
      name LeftHand
      direction 0.000000 0.000000 0.000000
      length 0.000000
      axis 0.0 0.0 -90.0 xyz
      dof rx ry rz
   end
   begin
      id 13
      name LeftHand_dum1
      direction 0.000000 0.000000 0.000000
      length 0.000000
      axis 0.0 0.0 -90.0 xyz
   end
   begin
      id 14
      name LeftHand_dum2
      direction 1.000000 0.000000 0.000000
      length 3.937000
      axis 0.0 0.0 -90.0 xyz
   end
   begin
      id 15
      name LeftHandThumb1
      direction 0.000000 0.000000 1.000000
      length 3.937000
      axis 0.0 0.0 -90.0 xyz
      dof rx rz ry
   end
   begin
      id 16
      name RightShoulder
      direction -1.000000 0.000000 0.000000
      length 8.219464
      axis 0.0 0.0 90.0 xyz
      dof rx ry rz
   end
   begin
      id 17
      name RightArm
      direction -1.000000 0.000000 0.000000
      length 11.094937
      axis 0.0 0.0 90.0 xyz
      dof rx ry rz
   end
   begin
      id 18
      name RightForeArm
      direction -1.000000 0.000000 0.000000
      length 9.103875
      axis 0.0 0.0 90.0 xyz
      dof ry rz rx
   end
   begin
      id 19
      name RightHand
      direction 0.000000 0.000000 0.000000
      length 0.000000
      axis 0.0 0.0 90.0 xyz
      dof rx ry rz
   end
   begin
      id 20
      name RightHand_dum1
      direction 0.000000 0.000000 0.000000
      length 0.000000
      axis 0.0 0.0 90.0 xyz
   end
   begin
      id 21
      name RightHand_dum2
      direction -1.000000 0.000000 0.000000
      length 3.937000
      axis 0.0 0.0 90.0 xyz
   end
   begin
      id 22
      name RightHandThumb1
      direction 0.000000 0.000000 1.000000
      length 3.937000
      axis 0.0 0.0 90.0 xyz
      dof rx rz ry
   end
   begin
      id 23
      name LeftUpLeg
      direction 0.000000 -1.000000 0.000000
      length 16.181467
      axis 0.0 0.0 0.0 xyz
      dof rx ry rz
   end
   begin
      id 24
      name LeftLeg
      direction 0.000000 -1.000000 0.000000
      length 16.501392
      axis 0.0 0.0 0.0 xyz
      dof rx ry rz
   end
   begin
      id 25
      name LeftFoot
      direction 0.000000 -0.258819 0.965926
      length 6.408245
      axis 15.0 0.0 0.0 xyz
      dof rx ry rz
   end
   begin
      id 26
      name LeftToeBase
      direction 0.000000 0.000000 1.000000
      length 2.952750
      axis 0.0 0.0 0.0 xyz
      dof rx ry rz
   end
   begin
      id 27
      name RightUpLeg
      direction 0.000000 -1.000000 0.000000
      length 16.181467
      axis 0.0 0.0 0.0 xyz
      dof rx ry rz
   end
   begin
      id 28
      name RightLeg
      direction 0.000000 -1.000000 0.000000
      length 16.501392
      axis 0.0 0.0 0.0 xyz
      dof rx ry rz
   end
   begin
      id 29
      name RightFoot
      direction 0.000000 -0.258819 0.965926
      length 6.408245
      axis 15.0 0.0 0.0 xyz
      dof rx ry rz
   end
   begin
      id 30
      name RightToeBase
      direction 0.000000 0.000000 1.000000
      length 2.952750
      axis 0.0 0.0 0.0 xyz
      dof rx ry rz
   end
:hierarchy
   begin
      root Spine_dum LeftUpLeg_dum RightUpLeg_dum
      Spine_dum Spine
      LeftUpLeg_dum LeftUpLeg
      RightUpLeg_dum RightUpLeg
      Spine Spine_dum1 Spine_dum2 Spine_dum3
      Spine_dum1 Head
      Spine_dum2 LeftShoulder
      Spine_dum3 RightShoulder
      LeftShoulder LeftArm
      LeftArm LeftForeArm
      LeftForeArm LeftHand
      LeftHand LeftHand_dum1 LeftHand_dum2
      LeftHand_dum1 LeftHandThumb1
      RightShoulder RightArm
      RightArm RightForeArm
      RightForeArm RightHand
      RightHand RightHand_dum1 RightHand_dum2
      RightHand_dum1 RightHandThumb1
      LeftUpLeg LeftLeg
      LeftLeg LeftFoot
      LeftFoot LeftToeBase
      RightUpLeg RightLeg
      RightLeg RightFoot
      RightFoot RightToeBase
   end

# File created by Blade
# Date/Time:  Wed Apr 08 17:19:54 2015
# Frame Rate: 120.000 fps
#------------------------------------------------------
:FULLY-SPECIFIED
:DEGREES
531
root 4.933747 36.405225 0.185865 -3.893660 -27.104140 -7.337743
Spine 10.372021 3.650120 4.282144
Head 20.660485 32.351872 10.548793
LeftShoulder -7.153203 16.060159 14.459477
LeftArm 18.262126 22.848392 -75.421775
LeftForeArm 24.446013 -0.000000 20.684213
LeftHand -11.311017 -0.000000 -14.730996
LeftHandThumb1 -26.253704 0.000000 33.147579
RightShoulder -26.577414 -46.451920 21.486657
RightArm 63.310415 -21.337649 46.117671
RightForeArm 24.618552 -0.000000 6.197178
RightHand -6.510257 0.000000 15.993597
RightHandThumb1 -24.326973 -0.000000 -32.862282
LeftUpLeg 9.861533 -2.031803 1.828204
LeftLeg 9.691463 -0.000000 -0.000000
LeftFoot -14.094035 -4.020531 -1.466404
LeftToeBase 10.702462 -0.000000 -0.000000
RightUpLeg -46.254568 15.243406 -4.586886
RightLeg 155.876838 -0.000000 -0.000000
RightFoot 12.740455 11.569121 8.053885
RightToeBase 3.137737 -0.000000 -0.000000
532
root 4.972287 36.380662 0.204110 -4.045261 -26.994686 -7.013754
Spine 10.342131 3.512751 4.400908
Head 20.718376 32.343426 10.319207
LeftShoulder -7.127909 16.005632 14.494779
LeftArm 18.309225 22.501492 -75.545603
LeftForeArm 24.240983 -0.000000 20.806610
LeftHand -11.352401 -0.000000 -14.666450
LeftHandThumb1 -26.253704 0.000000 33.147579
RightShoulder -26.540439 -46.452382 21.434174
RightArm 63.481302 -21.467670 45.834918
RightForeArm 24.557286 -0.000000 6.320741
RightHand -6.639032 0.000000 16.010244
RightHandThumb1 -24.326973 -0.000000 -32.862282
LeftUpLeg 9.879065 -2.331110 1.360574
LeftLeg 9.647454 -0.000000 -0.000000
LeftFoot -14.075651 -3.582061 -1.174998
LeftToeBase 10.554760 -0.000000 -0.000000
RightUpLeg -46.369483 15.323419 -4.098705
RightLeg 155.894362 -0.000000 -0.000000
RightFoot 12.873999 11.225166 8.233924
RightToeBase 3.143188 -0.000000 -0.000000
533
root 5.011293 36.353884 0.225036 -4.240144 -26.925301 -6.681526
Spine 10.362571 3.435199 4.522570
Head 20.738434 32.311936 10.075629
LeftShoulder -7.097461 15.936078 14.533679
LeftArm 18.348175 22.156556 -75.667383
LeftForeArm 23.965490 -0.000000 20.964897
LeftHand -11.421756 -0.000000 -14.523374
LeftHandThumb1 -26.253704 0.000000 33.147579
RightShoulder -26.450577 -46.380341 21.363325
RightArm 63.620703 -21.678588 45.389624
RightForeArm 24.688321 0.000000 6.446434
RightHand -6.392273 -0.000000 16.535055
RightHandThumb1 -24.326973 -0.000000 -32.862282
LeftUpLeg 9.941589 -2.548280 0.893298
LeftLeg 9.618266 -0.000000 -0.000000
LeftFoot -14.063062 -3.181109 -0.835062
LeftToeBase 10.342764 -0.000000 -0.000000
RightUpLeg -46.461314 15.527676 -3.697371
RightLeg 155.929431 -0.000000 -0.000000
RightFoot 12.994395 10.865989 8.553616
RightToeBase 3.224196 -0.000000 -0.000000
534
root 5.049918 36.326891 0.246968 -4.425567 -26.845983 -6.341905
Spine 10.352623 3.326450 4.637099
Head 20.803612 32.345871 9.831939
LeftShoulder -7.090232 15.878612 14.534507
LeftArm 18.381475 21.869281 -75.739409
LeftForeArm 23.713058 -0.000000 21.131651
LeftHand -11.493496 -0.000000 -14.355385
LeftHandThumb1 -26.253704 0.000000 33.147579
RightShoulder -26.329809 -46.348677 21.282459
RightArm 63.733624 -21.807046 45.066170
RightForeArm 24.676485 -0.000000 6.519824
RightHand -6.372151 -0.000000 16.841035
RightHandThumb1 -24.326973 -0.000000 -32.862282
LeftUpLeg 9.970236 -2.788866 0.427028
LeftLeg 9.630249 -0.000000 -0.000000
LeftFoot -14.037981 -2.822028 -0.553105
LeftToeBase 10.072795 -0.000000 -0.000000
RightUpLeg -46.534578 15.711685 -3.315424
RightLeg 155.960735 -0.000000 -0.000000
RightFoot 13.088929 10.508869 8.633740
RightToeBase 3.203380 -0.000000 -0.000000
535
root 5.087093 36.299796 0.269675 -4.589302 -26.745941 -6.021696
Spine 10.317146 3.225611 4.766487
Head 20.856397 32.345549 9.575438
LeftShoulder -7.060911 15.817328 14.549261
LeftArm 18.415370 21.606220 -75.806564
LeftForeArm 23.402192 0.000000 21.283630
LeftHand -11.506812 -0.000000 -14.211059
LeftHandThumb1 -26.253704 0.000000 33.147579
RightShoulder -26.229977 -46.286878 21.201660
RightArm 63.828277 -21.956134 44.749750
RightForeArm 24.751099 -0.000000 6.562986
RightHand -6.509281 0.000000 16.710253
RightHandThumb1 -24.326973 -0.000000 -32.862282
LeftUpLeg 9.958938 -2.912501 0.029089
LeftLeg 9.687949 -0.000000 -0.000000
LeftFoot -14.046540 -2.669972 -0.316257
LeftToeBase 9.889192 -0.000000 -0.000000
RightUpLeg -46.607208 15.915976 -2.970773
RightLeg 155.974793 -0.000000 -0.000000
RightFoot 13.293886 10.330336 8.669061
RightToeBase 3.125673 -0.000000 -0.000000
536
root 5.121642 36.273026 0.291043 -4.719854 -26.627809 -5.709059
Spine 10.222691 3.129842 4.884883
Head 20.961433 32.308620 9.365867
LeftShoulder -7.030129 15.804135 14.555629
LeftArm 18.512131 21.405242 -75.806240
LeftForeArm 23.094096 -0.000000 21.438762
LeftHand -11.561276 0.000000 -14.086337
LeftHandThumb1 -26.253704 0.000000 33.147579
RightShoulder -26.147849 -46.289987 21.183120
RightArm 63.912624 -22.039341 44.437442
RightForeArm 24.740516 -0.000000 6.632721
RightHand -6.377471 -0.000000 17.365610
RightHandThumb1 -24.326973 -0.000000 -32.862282
LeftUpLeg 9.894985 -2.973524 -0.319899
LeftLeg 9.778936 -0.000000 -0.000000
LeftFoot -14.097637 -2.660735 -0.245012
LeftToeBase 9.916303 -0.000000 -0.000000
RightUpLeg -46.720291 16.155794 -2.659377
RightLeg 155.975877 -0.000000 -0.000000
RightFoot 13.656302 10.244942 8.807575
RightToeBase 3.118527 -0.000000 -0.000000
